<?xml version="1.0" encoding="UTF-8"?>
<svg width="1232px" height="298px" viewBox="0 0 1232 298" version="1.1" xmlns="http://www.w3.org/2000/svg" xmlns:xlink="http://www.w3.org/1999/xlink">
    <!-- Generator: Sketch 48.2 (47327) - http://www.bohemiancoding.com/sketch -->
    <title>Page 1</title>
    <desc>Created with Sketch.</desc>
    <defs>
        <polygon id="path-1" points="0 0.090011273 234.956053 0.090011273 234.956053 286.435995 0 286.435995"></polygon>
    </defs>
    <g id="Artboard-Copy-11" stroke="none" stroke-width="1" fill="none" fill-rule="evenodd" transform="translate(-527.000000, -172.000000)">
        <g id="Page-1" transform="translate(527.000000, 172.000000)">
            <path d="M627.059095,114.10311 L650.960801,189.058296 L579.060496,189.06075 L627.059095,114.10311 Z M683.463069,291 L747,291 L734.0238,250.3092 L714.846103,190.152676 L669.473875,47.8661535 L656.127068,6 L624.499433,6 L603.194449,39.2657041 L506.577103,190.152676 L468.0537,250.3092 L442,291 L513.78171,291 L546.328451,240.172693 L667.257643,240.172693 L683.463069,291 Z" id="Fill-1" fill="#FEFEFE"></path>
            <g id="Group-11">
                <g id="Group-4" transform="translate(0.000000, 5.997562)">
                    <mask id="mask-2" fill="white">
                        <use xlink:href="#path-1"></use>
                    </mask>
                    <g id="Clip-3"></g>
                    <path d="M98.5976513,51.3903419 L85.077027,136.896639 L120.06275,136.896639 C150.274896,136.896639 172.146204,119.792424 172.146204,87.1922096 C172.146204,63.3201931 156.23756,51.3903419 131.988079,51.3903419 L98.5976513,51.3903419 Z M76.7263428,188.610722 L61.2214461,286.435995 L-0.000492375249,286.435995 L45.3201875,0.090011273 L138.352029,0.090011273 C197.589695,0.090011273 234.956053,27.9148377 234.956053,79.6289204 C234.956053,149.631829 182.478699,188.610722 108.536246,188.610722 L76.7263428,188.610722 Z" id="Fill-2" fill="#FEFEFE" mask="url(#mask-2)"></path>
                </g>
                <polygon id="Fill-5" fill="#FEFEFE" points="237.254953 292.434542 282.575633 6.08609587 343.797571 6.08609587 306.431214 241.131749 416.555862 241.131749 408.60154 292.434542"></polygon>
                <path d="M997.890517,77.4078397 C982.048344,68.5220215 957.094766,57.1906331 922.109043,56.9221868 C857.703898,56.4246992 811.213827,105.395212 810.775613,162.263955 C810.435874,206.417212 839.183203,241.630468 889.279923,242.017129 C926.249918,242.300352 956.146944,231.789079 975.699165,222.794898 L966.112619,279.594683 C950.152275,287.428881 915.878034,298.302187 875.72237,297.991873 C798.207735,297.395873 748.143019,241.719129 748.701865,168.935707 C749.418271,75.8907488 829.512953,0.144566942 926.912163,0.895723967 C967.062903,1.20357521 994.0106,13.3378397 1007.06593,21.3986165 L997.890517,77.4078397 Z" id="Fill-7" fill="#FEFEFE"></path>
                <polygon id="Fill-9" fill="#FEFEFE" points="1002.04247 292.434542 1047.36315 6.08609587 1231.43271 6.08609587 1223.48578 57.3888893 1100.63815 57.3888893 1090.29581 122.611484 1194.46026 122.611484 1186.50594 171.939104 1082.35134 171.939104 1071.21873 241.131749 1200.02656 241.131749 1192.07224 292.434542"></polygon>
            </g>
        </g>
    </g>
</svg>