<svg width="1232" height="298" xmlns="http://www.w3.org/2000/svg" xmlns:xlink="http://www.w3.org/1999/xlink"><defs><path id="a" d="M0 .09h234.956v286.346H0z"/></defs><g fill="none" fill-rule="evenodd"><path d="M627.06 114.103l23.9 74.955-71.9.003 48-74.958zM683.462 291H747l-12.976-40.69-19.178-60.157-45.372-142.287L656.127 6H624.5l-21.305 33.266-96.617 150.887-38.523 60.156L442 291h71.782l32.546-50.827h120.93L683.463 291z" fill="#FEFEFE"/><g transform="translate(0 5.998)"><mask id="b" fill="#fff"><use xlink:href="#a"/></mask><path d="M98.598 51.39l-13.521 85.507h34.986c30.212 0 52.083-17.105 52.083-49.705 0-23.872-15.908-35.802-40.158-35.802h-33.39zM76.726 188.61l-15.505 97.826H0L45.32.09h93.032c59.238 0 96.604 27.825 96.604 79.539 0 70.003-52.477 108.982-126.42 108.982h-31.81z" fill="#FEFEFE" mask="url(#b)"/></g><path fill="#FEFEFE" d="M237.255 292.435l45.32-286.349h61.223L306.43 241.132h110.125l-7.954 51.303zM997.89 77.408c-15.842-8.886-40.795-20.217-75.781-20.486-64.405-.497-110.895 48.473-111.333 105.342-.34 44.153 28.407 79.366 78.504 79.753 36.97.283 66.867-10.228 86.42-19.222l-9.587 56.8c-15.96 7.834-50.235 18.707-90.39 18.397-77.515-.596-127.58-56.273-127.021-129.056C749.418 75.89 829.513.145 926.912.896c40.15.308 67.099 12.442 80.154 20.503l-9.175 56.009zm4.152 215.027l45.321-286.349h184.07l-7.947 51.303h-122.848l-10.342 65.222h104.164l-7.954 49.328H1082.35l-11.132 69.193h128.808l-7.955 51.303z"/></g></svg>